<?xml version="1.0" standalone="no"?>
<!DOCTYPE svg PUBLIC "-//W3C//DTD SVG 20010904//EN"
 "http://www.w3.org/TR/2001/REC-SVG-20010904/DTD/svg10.dtd">
<svg version="1.0" xmlns="http://www.w3.org/2000/svg"
 width="6092.000000pt" height="2893.000000pt" viewBox="0 0 6092.000000 2893.000000"
 preserveAspectRatio="xMidYMid meet">
<metadata>
Created by potrace 1.15, written by Peter Selinger 2001-2017
</metadata>
<g transform="translate(0.000000,2893.000000) scale(0.100000,-0.100000)"
fill="#000000" stroke="none">
<path d="M33193 21624 c-88 -43 -93 -55 -93 -214 l0 -137 541 -579 c297 -319
546 -590 552 -604 14 -30 23 -2963 19 -6076 l-2 -1981 -24 -26 c-17 -18 -31
-59 -51 -144 -131 -564 -487 -1092 -992 -1471 l-102 -77 0 -131 c-1 -129 -1
-130 27 -156 l27 -27 1366 -8 c809 -6 1908 -6 2694 0 l1327 9 50 -22 c98 -42
395 -97 623 -115 159 -13 499 26 703 80 185 49 483 191 687 328 464 310 879
778 1224 1382 75 131 90 151 98 134 17 -39 278 523 397 856 26 72 52 141 57
153 22 54 141 461 178 608 143 568 222 1091 261 1724 14 225 14 832 0 1065
-67 1123 -306 2130 -718 3022 -70 151 -197 393 -252 481 l-30 47 0 -34 c0 -31
-9 -20 -87 108 -318 514 -705 934 -1113 1209 -131 88 -295 179 -408 227 -48
21 -105 46 -128 56 -22 10 -93 34 -158 53 -596 181 -1236 87 -1818 -267 -343
-209 -686 -531 -971 -912 -678 -907 -1133 -2214 -1261 -3630 -41 -449 -53
-1067 -27 -1460 53 -834 196 -1588 432 -2290 92 -273 240 -643 285 -713 l15
-23 32 19 c31 19 65 20 877 27 465 4 847 9 849 11 2 2 -28 43 -66 91 -322 409
-568 947 -733 1603 -155 614 -217 1190 -207 1908 7 477 32 765 107 1198 234
1354 843 2381 1550 2614 141 47 243 60 384 49 155 -11 257 -39 391 -105 151
-74 279 -168 415 -304 575 -576 965 -1616 1086 -2900 21 -226 30 -852 15
-1105 -37 -649 -142 -1225 -321 -1765 -249 -752 -620 -1318 -1048 -1597 -165
-109 -301 -158 -507 -184 -165 -20 -374 17 -543 97 l-94 44 6 -123 c3 -67 8
-448 11 -847 5 -585 3 -730 -7 -750 -7 -14 -30 -33 -51 -43 -36 -18 -38 -18
-74 0 -21 10 -43 29 -49 43 -13 26 -18 289 -30 1310 -4 300 -9 549 -11 553 -6
9 -1364 1 -1698 -10 -110 -3 -582 -7 -1049 -7 l-849 -1 6 2200 c3 1210 8 2866
12 3680 8 2336 9 3628 1 3657 -5 15 -18 34 -31 42 -30 20 -63 23 -890 101
-379 36 -706 67 -725 70 -26 4 -49 -1 -87 -21z"/>
<path d="M46451 21606 c-18 -7 -45 -25 -59 -41 l-25 -29 7 -1741 c3 -957 8
-2350 11 -3095 3 -745 8 -1834 11 -2420 5 -1033 4 -1068 -15 -1180 -45 -262
-159 -525 -319 -734 -67 -89 -226 -243 -317 -308 -273 -194 -544 -281 -870
-280 -296 1 -573 90 -829 265 -100 69 -268 229 -340 324 -166 220 -284 502
-325 773 -23 148 -27 412 -30 1625 -1 677 -4 1289 -6 1360 -2 72 -6 1170 -10
2440 -6 1892 -10 2316 -21 2342 -18 44 -71 70 -118 57 -18 -5 -316 -215 -665
-468 -515 -375 -637 -460 -664 -460 -17 -1 -31 -5 -30 -11 1 -5 41 -75 89
-155 730 -1213 1119 -2927 1044 -4610 -60 -1343 -378 -2591 -912 -3575 l-81
-150 44 -84 c190 -363 542 -731 944 -989 306 -196 717 -365 1080 -446 200 -44
334 -62 600 -80 183 -13 238 -13 425 0 409 27 661 77 980 193 396 144 681 300
980 539 116 93 311 288 403 402 179 223 339 512 421 760 39 118 56 189 97 400
16 83 6 7827 -10 7857 -3 6 -249 271 -546 589 -297 318 -582 625 -634 683
-138 157 -222 239 -250 249 -17 6 -38 5 -60 -2z"/>
<path d="M32491 21546 c-18 -7 -45 -25 -59 -41 l-25 -29 7 -1741 c3 -957 8
-2350 11 -3095 3 -745 8 -1834 11 -2420 5 -1033 4 -1068 -15 -1180 -45 -262
-159 -525 -319 -734 -67 -89 -226 -243 -317 -308 -273 -194 -544 -281 -870
-280 -296 1 -573 90 -829 265 -100 69 -268 229 -340 324 -166 220 -284 502
-325 773 -23 148 -27 412 -30 1625 -1 677 -4 1289 -6 1360 -2 72 -6 1170 -10
2440 -6 1892 -10 2316 -21 2342 -18 44 -71 70 -118 57 -18 -5 -317 -215 -666
-469 -348 -253 -639 -459 -648 -457 -13 3 -12 -1 3 -25 223 -339 482 -901 656
-1423 566 -1704 597 -3707 84 -5470 -143 -493 -362 -1026 -578 -1413 -42 -76
-77 -144 -77 -151 0 -19 92 -184 158 -285 195 -298 503 -595 837 -809 306
-196 717 -365 1080 -446 200 -44 334 -62 600 -80 183 -13 238 -13 425 0 409
27 661 77 980 193 362 131 648 283 916 487 17 13 33 22 36 19 3 -3 43 27 89
66 335 285 583 628 724 998 41 108 89 284 105 386 7 39 20 82 31 97 19 27 19
102 19 3953 l0 3926 -557 596 c-307 328 -600 644 -652 702 -138 156 -222 239
-250 249 -17 6 -38 5 -60 -2z"/>
<path d="M19243 21504 c-79 -39 -93 -62 -93 -153 l1 -76 570 -610 c314 -335
576 -621 582 -635 14 -30 23 -2963 19 -6076 l-2 -1981 -24 -26 c-17 -18 -31
-59 -51 -144 -132 -567 -481 -1084 -1001 -1480 -54 -41 -111 -77 -126 -80
l-28 -5 0 -152 0 -152 28 -26 27 -27 1365 -8 c801 -6 1919 -6 2705 -1 1237 9
1341 11 1355 26 14 15 15 47 10 232 -3 118 -7 406 -8 640 -2 234 -4 434 -7
445 -2 11 -4 148 -4 303 l-1 284 -782 -6 c-431 -4 -846 -9 -923 -13 -77 -3
-536 -7 -1019 -7 l-879 -1 6 2200 c3 1210 8 2866 12 3680 8 2336 9 3628 1
3657 -5 15 -18 34 -31 42 -30 20 -63 23 -890 101 -379 36 -706 67 -725 70 -26
4 -49 -1 -87 -21z"/>
<path d="M11384 21509 c-795 -61 -1544 -558 -2141 -1422 l-61 -88 64 -104
c213 -348 374 -763 459 -1179 51 -253 66 -393 72 -671 5 -231 -7 -459 -32
-615 -3 -19 17 44 44 140 229 807 552 1399 954 1751 278 243 556 350 851 328
155 -11 257 -39 391 -105 151 -74 279 -168 415 -304 575 -576 965 -1616 1086
-2900 21 -226 30 -852 15 -1105 -37 -649 -142 -1225 -321 -1765 -282 -851
-717 -1458 -1214 -1691 -156 -73 -372 -109 -533 -89 -207 25 -347 77 -522 194
-674 452 -1182 1600 -1325 2996 -30 292 -39 525 -33 908 6 444 33 761 93 1116
8 48 13 91 10 94 -4 3 -6 -2 -6 -10 0 -26 -80 -267 -132 -398 -270 -679 -738
-1270 -1334 -1685 -89 -62 -93 -66 -88 -98 2 -17 11 -97 19 -177 22 -202 80
-572 121 -775 355 -1734 1156 -3065 2189 -3638 324 -180 599 -260 1010 -292
159 -13 499 26 703 80 237 63 586 244 837 433 173 131 483 429 520 500 11 21
54 81 96 133 614 763 1061 1841 1269 3062 95 556 131 997 131 1587 0 338 -9
575 -32 830 -129 1461 -582 2777 -1273 3700 -39 52 -77 106 -85 120 -51 93
-377 425 -562 572 -187 149 -427 296 -607 373 -48 21 -105 46 -128 56 -139 62
-406 121 -628 139 -140 11 -143 11 -292 -1z"/>
<path d="M18601 21486 c-18 -7 -45 -25 -59 -41 l-25 -29 7 -1741 c3 -957 8
-2350 11 -3095 3 -745 8 -1834 11 -2420 5 -1033 4 -1068 -15 -1180 -45 -262
-159 -525 -319 -734 -67 -89 -226 -243 -317 -308 -273 -194 -544 -281 -870
-280 -296 1 -573 90 -829 265 -100 69 -268 229 -340 324 -166 220 -284 502
-325 773 -23 148 -27 412 -30 1625 -1 677 -4 1289 -6 1360 -2 72 -6 1170 -10
2440 -6 1871 -10 2316 -20 2342 -17 40 -67 67 -110 60 -21 -4 -227 -147 -626
-437 -327 -237 -595 -435 -597 -440 -2 -5 29 -64 68 -132 521 -903 866 -2088
965 -3308 45 -564 45 -1069 -1 -1620 -103 -1247 -448 -2419 -985 -3342 l-71
-122 38 -70 c189 -354 430 -635 764 -891 351 -268 831 -488 1285 -589 200 -44
334 -62 600 -80 183 -13 238 -13 425 0 118 8 266 21 328 29 495 68 1040 281
1450 567 45 32 88 58 95 58 17 1 143 103 259 211 374 346 645 831 718 1284 7
39 20 82 31 97 19 27 19 102 19 3953 l0 3926 -557 596 c-307 328 -600 644
-652 702 -138 156 -222 239 -250 249 -17 6 -38 5 -60 -2z"/>
<path d="M4153 21469 c-54 -16 -70 -48 -77 -152 -3 -50 -8 -477 -11 -947 -3
-470 -8 -1341 -12 -1935 -5 -594 -8 -1321 -8 -1615 l0 -535 54 -11 c38 -9 71
-10 114 -3 41 7 243 6 611 -3 303 -7 625 -12 716 -10 91 1 224 4 297 5 75 1
137 7 143 13 11 11 15 2999 3 3274 -6 149 -5 161 13 181 18 20 26 21 109 14
50 -3 155 -19 235 -35 405 -81 747 -269 1032 -568 125 -133 214 -259 298 -426
150 -299 213 -602 191 -918 -65 -894 -780 -1606 -1711 -1703 -85 -9 -322 -7
-760 6 -195 5 -359 10 -365 10 -5 0 -167 -5 -360 -11 -192 -5 -834 -14 -1426
-19 -956 -8 -1080 -11 -1107 -25 -39 -20 -52 -44 -52 -94 0 -34 23 -76 153
-283 84 -134 278 -443 431 -686 l278 -442 51 -24 52 -25 484 -6 c385 -6 487
-10 505 -21 17 -11 162 -16 731 -27 811 -15 1050 -13 1220 7 66 8 209 22 318
30 110 9 260 27 335 40 485 85 974 283 1405 569 24 16 27 17 27 2 0 -9 3 -16
8 -16 4 0 56 38 116 84 422 328 742 709 982 1170 205 394 319 765 381 1231 21
160 24 596 5 760 -47 411 -150 781 -316 1140 -57 121 -175 335 -185 335 -4 0
-34 39 -67 88 -331 489 -825 914 -1378 1186 -465 229 -897 341 -1491 387 -187
15 -1925 22 -1972 8z"/>
<path d="M25154 21449 c-509 -39 -1012 -262 -1454 -644 -113 -98 -321 -308
-416 -420 -759 -898 -1280 -2305 -1418 -3830 -41 -449 -53 -1067 -27 -1460 70
-1102 301 -2086 691 -2951 l72 -159 266 3 c147 2 563 6 924 10 l657 7 -85 95
c-580 641 -955 1750 -1035 3058 -15 249 -6 887 15 1117 77 825 252 1511 532
2095 342 711 795 1140 1285 1215 106 16 284 5 403 -26 106 -27 277 -112 396
-196 116 -83 299 -264 401 -398 480 -630 788 -1553 895 -2685 21 -226 30 -852
15 -1105 -37 -649 -142 -1225 -321 -1765 -249 -752 -620 -1318 -1048 -1597
-165 -109 -301 -158 -507 -184 -165 -20 -374 17 -543 96 l-94 45 6 -268 c4
-147 8 -561 9 -920 l2 -652 35 -9 c87 -23 231 -43 395 -56 159 -13 499 26 703
80 185 49 483 191 687 328 461 308 888 789 1223 1379 37 65 70 118 74 118 3 0
8 -8 10 -17 8 -39 284 544 380 802 264 709 433 1459 502 2230 49 547 51 1190
5 1705 -77 870 -270 1699 -564 2420 -116 283 -267 593 -388 794 -35 58 -36 58
-39 28 -3 -27 -11 -17 -92 113 -306 493 -695 913 -1096 1183 -131 88 -295 179
-408 227 -48 21 -105 46 -128 56 -139 62 -406 121 -628 139 -140 11 -143 11
-292 -1z"/>
<path d="M49459 16862 l-31 -27 -43 -439 c-24 -241 -42 -456 -39 -478 3 -36
29 -65 371 -414 202 -207 382 -384 399 -395 17 -10 41 -19 53 -19 33 0 76 25
97 57 17 26 19 58 22 412 3 211 1 440 -3 510 l-7 126 -226 226 c-125 124 -284
280 -353 347 -120 116 -129 122 -168 122 -30 0 -48 -7 -72 -28z"/>
<path d="M51200 16507 c-13 -7 -85 -85 -160 -173 -236 -282 -397 -478 -407
-499 -13 -24 -20 -1029 -29 -3862 l-6 -1992 30 -31 c29 -29 34 -30 129 -32
135 -3 160 -4 223 -12 30 -4 144 -3 253 2 221 11 239 16 256 79 9 33 12 1204
5 2578 0 121 -2 489 -4 817 -2 539 -1 600 14 622 9 14 16 28 16 32 0 14 104
135 158 185 122 112 306 209 462 244 118 26 301 23 422 -9 394 -101 695 -442
784 -887 16 -76 17 -243 21 -1828 3 -1099 8 -1751 14 -1763 5 -10 24 -26 42
-35 29 -16 63 -18 357 -16 400 3 452 7 488 38 l27 23 -3 1489 c-4 1660 -11
2097 -37 2243 -70 394 -222 734 -458 1026 -90 111 -286 297 -398 376 -190 135
-401 235 -612 288 -162 41 -261 53 -432 54 -334 0 -669 -93 -940 -262 l-50
-31 -6 629 c-7 696 -3 659 -72 700 -37 23 -53 24 -87 7z"/>
<path d="M49378 15341 l-33 -29 -5 -1344 c-3 -739 -3 -1927 0 -2640 l5 -1296
23 -25 c19 -20 39 -27 109 -36 47 -6 89 -9 93 -6 4 2 103 7 219 11 204 6 213
5 234 -14 54 -50 126 -50 174 0 l28 29 3 1152 c1 634 2 1157 2 1162 0 6 0 408
0 895 0 487 -3 1013 -7 1169 l-6 284 -60 64 c-33 35 -196 196 -363 358 -296
289 -303 295 -343 295 -31 0 -49 -7 -73 -29z"/>
<path d="M56495 15104 c-249 -36 -318 -51 -485 -106 -693 -227 -1271 -822
-1527 -1573 -359 -1051 -59 -2250 736 -2939 213 -184 358 -275 681 -423 156
-72 347 -117 606 -143 193 -20 209 -20 375 -5 95 9 210 23 255 30 123 22 308
80 404 128 70 35 88 48 103 79 24 48 11 95 -37 135 -25 20 -56 75 -116 203
-253 541 -256 544 -315 556 -21 4 -60 -3 -111 -19 -278 -88 -669 -51 -935 89
-278 146 -475 352 -619 649 -182 375 -216 799 -95 1200 160 532 541 898 1048
1007 131 28 375 30 480 5 96 -24 130 -22 166 9 18 14 36 35 42 45 11 21 48
356 48 430 -1 86 32 384 48 441 19 69 11 111 -29 141 -49 37 -208 58 -463 62
-126 2 -243 1 -260 -1z"/>
<path d="M4035 14260 c-2 -3 -6 -590 -10 -1305 -4 -715 -9 -1320 -10 -1345 -2
-25 -4 -424 -6 -888 l-4 -844 34 -30 34 -31 321 7 c177 3 382 8 456 11 74 3
266 7 425 10 534 10 627 15 655 34 14 10 31 29 37 43 13 26 13 120 13 3394 l0
932 -442 6 c-595 9 -1499 12 -1503 6z"/>
</g>
</svg>
